<?xml version="1.0" encoding="utf-8"?><svg xmlns="http://www.w3.org/2000/svg" xmlns:xlink="http://www.w3.org/1999/xlink"><symbol viewBox="0 0 50 21" id="burger" xmlns="http://www.w3.org/2000/svg"><path d="M10 .5h40m-40 20h40m-50-10h40"/></symbol><symbol viewBox="0 0 40 40" id="logo" xmlns="http://www.w3.org/2000/svg"><g clip-path="url(#ba)"><path d="M39.19 34.598h-4.235c2.811-3.73 4.36-8.392 4.36-13.13C39.315 9.995 30.65.66 19.999.66S.683 9.996.683 21.468c0 4.738 1.547 9.401 4.358 13.13H.81a.81.81 0 0 0-.81.81v3.122c0 .447.363.81.81.81h11.556a.81.81 0 0 0 .81-.81v-3.478a.807.807 0 0 0-.193-.525l-.045-.053a.782.782 0 0 0-.156-.14c-3.977-2.757-6.448-7.687-6.448-12.867 0-8.357 6.13-15.155 13.665-15.155 7.534 0 13.665 6.799 13.665 15.155 0 5.202-2.487 10.142-6.489 12.893a.809.809 0 0 0-.35.666v3.503c0 .447.362.81.81.81H39.19a.81.81 0 0 0 .81-.81v-3.122a.809.809 0 0 0-.81-.81Z"/></g><defs><clipPath id="ba"><path d="M0 0h40v40H0z"/></clipPath></defs></symbol><symbol viewBox="0 0 80 64" id="marks" xmlns="http://www.w3.org/2000/svg"><path d="M22.051 36.571c4.103 0 7.35 1.284 9.744 3.85 2.564 2.406 3.846 5.614 3.846 9.624 0 4.33-1.538 7.78-4.615 10.346C28.12 62.797 24.103 64 18.974 64c-5.982 0-10.683-2.165-14.102-6.496C1.624 53.173 0 46.998 0 38.977c0-7.218 1.71-13.874 5.128-19.97C8.547 12.753 13.675 6.498 20.513.242c.17-.16.427-.241.769-.241.513 0 .94.24 1.282.722.342.481.342.882 0 1.203C14.188 9.945 10 19.408 10 30.315c0 4.492.855 7.78 2.564 9.866 1.539-2.407 4.701-3.61 9.487-3.61Zm44.36 0c4.102 0 7.35 1.284 9.743 3.85C78.718 42.827 80 46.035 80 50.045c0 4.33-1.538 7.78-4.615 10.346C72.479 62.797 68.462 64 63.333 64c-5.983 0-10.683-2.165-14.102-6.496-3.248-4.331-4.872-10.506-4.872-18.527 0-7.218 1.71-13.874 5.128-19.97 3.419-6.255 8.547-12.51 15.385-18.766.17-.16.427-.241.769-.241.513 0 .94.24 1.282.722.342.481.342.882 0 1.203-8.376 8.02-12.564 17.483-12.564 28.39 0 4.492.855 7.78 2.564 9.866 1.539-2.407 4.701-3.61 9.487-3.61Z"/></symbol><symbol fill="none" viewBox="0 0 306 144" id="static--brends--aldo-logo" xmlns="http://www.w3.org/2000/svg"><path fill-rule="evenodd" clip-rule="evenodd" d="M152.297 18.13c0 .07.067.19.15.264.131.117.313.14 1.443.182.711.026 1.469.08 1.685.118.216.039.592.072.837.075l.446.005v-.684l-.374-.045c-.206-.024-1.232-.045-2.281-.045-1.805 0-1.906.006-1.906.13Zm-6.185.119a.346.346 0 0 1-.226.103c-.182 0-.247.235-.129.474.077.159.135.19.307.171.116-.012.516-.038.888-.057.373-.019.708-.064.745-.1.037-.036.316-.066.619-.066.62 0 .774-.085.774-.427v-.207l-1.443.003c-1.174.002-1.46.022-1.535.106Zm-2.224.335c0 .05.106.194.235.317.179.171.299.225.499.225h.264v-.634h-.499c-.362 0-.499.025-.499.092Zm-3.912.789c-.651.144-1.268.355-2.296.785-.828.346-1.655.577-2.842.796a4.128 4.128 0 0 0-.926.32c-.255.13-.672.287-.927.35a5.02 5.02 0 0 0-.926.358c-.255.134-1.008.517-1.675.851-2.42 1.214-4.455 2.417-6.368 3.764-.846.595-1.146.77-1.323.77-.424 0-1.952 1.101-3.425 2.468a38.78 38.78 0 0 1-1.639 1.426c-.438.353-.841.74-.914.875-.098.186-.244.297-.615.467-.458.21-.502.252-.754.708-.147.266-.352.533-.457.592-.11.062-.245.244-.321.431-.078.191-.354.558-.674.896a9.64 9.64 0 0 0-.933 1.19c-.443.699-.84 1.035-1.384 1.175l-.351.09-.487.987c-.311.632-.655 1.203-.956 1.586-.434.551-.686.948-1.526 2.395-.714 1.23-2.041 2.694-3.063 3.38-.308.207-.476.381-.598.62a8.394 8.394 0 0 0-.609 1.716c-.083.395-.088.402-.655.77-.448.29-.607.44-.737.693-.386.753-1.067 2.543-1.461 3.84l-.277.91.28.504c.154.277.28.552.28.61 0 .166-.667 1.064-.948 1.275-.209.158-.268.262-.336.597a173.62 173.62 0 0 1-.393 1.778 93.646 93.646 0 0 0-1.063 5.495c-.785 4.797-.848 6.542-.391 10.847 1.4 13.195 5.396 23.332 12.382 31.415 1.979 2.29 6.535 6.566 9.512 8.928a42.31 42.31 0 0 0 5.624 3.745 36.05 36.05 0 0 1 1.221.703c.279.176.423.219.736.219.36 0 .411-.022.672-.282.166-.166.349-.282.446-.282.247 0 2.201.823 2.334.982.064.077.139.323.167.547.115.913.38 1.165 1.658 1.575.679.218 1.068.301 1.535.328.504.03.639.061.694.163.134.247.62.351 1.958.416 1.027.05 1.475.107 2.245.283 1.282.295 1.697.396 2.459.599.449.12.835.172 1.291.175.413.002.746.043.91.11.142.059.651.205 1.131.325.906.226 2.358.368 3.722.363.746-.003 1.336-.178 1.379-.409.076-.405.292-.404.692.002.3.306.327.317.735.317.383 0 .442-.021.602-.209.098-.115.2-.34.227-.5l.05-.29.331.044c.916.123 1.149.125 1.194.01.038-.098.255-.112 1.731-.112h1.688l.318.323.317.322.535-.046a14.54 14.54 0 0 1 1.97-.024c.341.019.468-.003.575-.099.112-.1.272-.123.851-.123.667 0 .723-.012.879-.177.151-.158.224-.176.714-.176.586 0 1.451-.186 1.9-.408.15-.074.493-.155.761-.179.591-.052.893-.21 1.067-.559.13-.261.134-.262.57-.262.355 0 .577-.057 1.153-.294.391-.162.817-.384.945-.492.339-.289.567-.389 1.328-.584.674-.174.978-.295 1.325-.532.098-.066.323-.143.499-.17a2.47 2.47 0 0 0 .677-.246c.51-.284 1.403-.662 2.098-.89.33-.108.791-.322 1.025-.476a7.234 7.234 0 0 1 1.563-.75c.147-.047.3-.146.341-.22.083-.155.427-.347.62-.347.072 0 .288-.158.48-.351.271-.272.453-.383.816-.499.775-.247 1.193-.472 1.342-.724.176-.294.334-.412 1.585-1.189a35.127 35.127 0 0 0 1.4-.908c.201-.147.45-.288.552-.314.102-.025.185-.069.185-.097 0-.128.546-.571.811-.658.358-.117.711-.547 1.096-1.334.229-.467.305-.56.536-.652.147-.059.313-.107.367-.107.055 0 .253-.214.44-.475.398-.556.413-.569.745-.624.212-.035.281-.095.427-.369.4-.755 1.556-1.649 2.478-1.919.269-.078.375-.178.837-.784.569-.746.619-.906.427-1.359-.099-.234-.096-.247.089-.376a5.318 5.318 0 0 1 1.197-.574c.185-.055.334-.157.407-.278.063-.106.26-.331.438-.502.3-.288.323-.336.323-.667 0-.314.05-.436.41-.998.397-.62.42-.642.728-.689.234-.036.388-.119.588-.316l.27-.267v-.679c0-.414.037-.769.096-.907.187-.438.662-.943 1.074-1.143a3.98 3.98 0 0 0 .813-.588c.344-.327.458-.5.646-.974l.228-.577-.156-.304a4.17 4.17 0 0 0-.334-.533l-.177-.23.161-.44a7.27 7.27 0 0 1 .903-1.724l.316-.44h.628c.525 0 .659-.024.814-.144.213-.167.331-.522.332-1.003 0-.185.048-.45.107-.59.06-.142.107-.466.107-.74 0-.598.17-.968.57-1.242.154-.105.281-.236.282-.291.006-.197.521-2.307.767-3.14.138-.465.276-1.02.309-1.232.032-.213.155-.658.273-.987.306-.852.438-1.684.494-3.099.044-1.096.066-1.256.2-1.444.605-.847.763-1.555.7-3.13-.037-.926-.026-1.232.056-1.483.076-.232.099-.601.085-1.374a16.06 16.06 0 0 1 .057-1.69c.077-.66.016-2.347-.19-5.283-.104-1.48-.152-1.772-.434-2.66a5.36 5.36 0 0 1-.208-1.02c-.04-.558-.525-2.886-.784-3.761-.188-.634-.751-2.02-.932-2.293-.058-.087-.105-.288-.105-.447 0-.308-.079-.508-.293-.741-.074-.08-.228-.476-.343-.88a15.815 15.815 0 0 0-.457-1.34c-.481-1.176-2.182-4.403-3.504-6.651-1.064-1.809-1.885-3.274-2.367-4.227-.591-1.166-.929-1.729-1.354-2.255a7.462 7.462 0 0 1-.653-1.02c-.732-1.403-1.52-2.454-2.121-2.83-.547-.34-.854-.684-1.206-1.345-.305-.575-.758-1.042-1.248-1.287-.187-.094-.385-.234-.44-.313-.056-.078-.307-.273-.558-.433-.251-.16-1.029-.734-1.728-1.276-1.241-.961-4.445-3.135-5.126-3.478-.187-.094-.808-.345-1.379-.557l-1.038-.385h-3.929l-.816.427c-1.507.79-2.071 1.175-2.875 1.964-1.169 1.148-2.554 3.063-2.594 3.586a1.33 1.33 0 0 1-.108.439c-.11.204-.133.45-.181 1.98-.028.9-.015 1.29.047 1.404.047.087.098.516.113.954.031.91.2 1.48.818 2.77.643 1.342 1.175 2.055 1.755 2.351.136.07.232.195.287.376.102.335.477.705.843.829.247.083.294.14.447.532.106.276.275.54.452.71.338.325 1.201.767 1.496.767.116 0 .521.122.899.273.378.15.928.331 1.222.403.385.095.624.204.855.39.368.294.789.515 1.121.586.248.052.59.396.59.593 0 .07.224.288.516.504.284.21 1.623 1.465 2.975 2.787 1.716 1.678 2.534 2.431 2.709 2.493.18.063.31.186.463.439.228.376 1.007 1.142 1.234 1.213.093.03.152.133.183.322.081.504.324 1.025.724 1.553.466.616.971 1.455 1.141 1.897.068.175.234.414.371.532.201.173.274.314.383.738.074.288.23.726.347.973.148.313.213.56.214.812.002.452.186.856.528 1.16.256.228.264.248.256.704-.01.627.039 1.022.151 1.221.08.141.131.495.229 1.573.011.117.082.338.157.493.116.237.135.412.121 1.101-.013.578.012.89.082 1.057.081.191.095.634.071 2.28-.018 1.185-.062 2.14-.107 2.274-.042.128-.057.284-.033.346.025.063.013.355-.026.649a93.24 93.24 0 0 0-.184 1.556c-.283 2.559-1.227 6.226-2.295 8.91-1.266 3.184-4.007 7.978-6.325 11.062-2.468 3.284-5.741 6.293-10.121 9.307-4.576 3.148-9.547 5.543-13.931 6.712-3.721.992-8.372 1.435-12.649 1.205-4.531-.245-7.248-.696-9.558-1.589-.52-.201-.935-.318-1.128-.318a1.35 1.35 0 0 1-.618-.172c-.171-.094-.632-.254-1.024-.355-1.947-.502-3.67-1.227-5.515-2.318-.416-.246-.92-.5-1.119-.564-.227-.073-.396-.178-.451-.279-.11-.202-.435-.397-.662-.397-.275 0-3.093-2.049-5.187-3.772-3.131-2.575-5.221-4.886-7.357-8.135-1.762-2.68-3.042-5.168-4.461-8.675-1.284-3.174-2.005-5.903-2.501-9.46-.391-2.808-.385-3.635.069-9.72.186-2.502.481-4.117 1.242-6.798 1.559-5.492 5.273-12.51 8.759-16.549 2.135-2.473 4.409-4.32 7.979-6.475 1.876-1.133 3.516-2.338 5.019-3.688.486-.436.955-.85 1.043-.92.28-.226 5.449-1.97 9.092-3.07 2.106-.636 3.965-1.026 5.772-1.212.451-.046.85-.112.887-.145.107-.095 1.496-.069 2.356.045.431.057 1.12.105 1.532.108.411.002.892.034 1.069.071.176.037.575.084.885.105.311.02.613.076.67.123.102.083.294.086 2.517.03.416-.01.576.013.677.1a1.4 1.4 0 0 0 .4.2c.147.047.301.146.341.22.065.12.156.135.813.135.407 0 .899-.036 1.093-.08.43-.098.575-.065 1.11.254.378.225.469.249.94.249.287 0 .542-.032.566-.07.073-.117.433-.08.558.057.064.07.152.22.194.335.047.125.219.296.437.435.289.184.432.23.734.23.386 0 .529-.085.565-.332.01-.07.191-.223.404-.34l.386-.214.021-.404c.018-.338.001-.41-.107-.441-.07-.02-.247-.1-.392-.175-.32-.167-.644-.176-.878-.024-.168.108-.186.104-.427-.105-.326-.283-.734-.487-1.086-.542-.235-.038-.363-.134-.795-.6-.43-.466-.551-.557-.735-.557-.167 0-.291-.074-.512-.303-.427-.443-.471-.466-1.093-.575a5.323 5.323 0 0 1-1.051-.315c-.555-.248-.876-.269-1.61-.104-.411.092-.56.097-.851.028-.436-.103-1.126-.535-1.379-.863-.162-.21-.241-.25-.55-.28-.232-.022-.412-.085-.505-.176-.19-.189-.117-.417.152-.475a.736.736 0 0 0 .332-.185c.166-.182.091-.31-.347-.591-.261-.168-.338-.262-.371-.458-.089-.534-.381-1.1-.857-1.661l-.234-.276-.988-.053c-2.406-.128-2.825-.133-3.434-.043-.577.086-.93.1-1.722.065-.297-.013-1.011.04-2.601.192-.428.041-.736.113-.925.215-.183.098-.41.152-.636.152-.432 0-1.239.132-1.432.235-.078.041-.303.1-.499.13l-.786.117c-.237.034-.526.111-.642.17-.276.139-.884.264-1.285.264-.214 0-.461.07-.75.215a11.05 11.05 0 0 1-1.156.455c-.674.223-.77.237-1.367.2-.633-.04-.647-.038-1.123.214-.274.144-.583.254-.717.254-.17 0-.293.06-.444.219-.115.12-.409.36-.653.533-.363.258-.529.327-.91.38-.287.04-.569.133-.732.24a2.787 2.787 0 0 1-.516.257c-.137.046-.355.19-.484.32-.245.245-.423.288-.668.158-.142-.075-.141-.081.058-.29.26-.271 1.075-.818 1.639-1.1.241-.12.498-.292.57-.382.073-.09.238-.207.367-.259a3.09 3.09 0 0 0 .516-.297c.155-.11.343-.201.419-.201.239 0 .565-.345.832-.88l.258-.516.489-.155c.515-.164.595-.162 1.456.039.274.064.723.121.997.127l.499.011.021-.546c.026-.674.124-.768.78-.749.494.015.589-.026.589-.25s-.155-.332-.535-.375c-.298-.033-.339-.016-.566.22-.134.141-.293.256-.354.256-.13 0-.683-.211-.683-.26 0-.02.1-.127.221-.24.167-.154.291-.204.502-.204.31 0 .736-.187.945-.415.108-.119.219-.149.548-.149.227 0 .432-.031.456-.07.025-.039.115-.07.202-.07.086 0 .276-.064.423-.141.146-.078.376-.141.51-.141.352 0 .641-.342.374-.444-.262-.099-1.047-.107-1.466-.014Zm4.272.218c-.421.112-.655.272-.601.41.055.143.509.323.814.323h.282V19.9c0-.232-.024-.42-.053-.418a6.923 6.923 0 0 0-.442.108Zm14.979 3.975c-.133.053-.16.118-.16.381 0 .276.026.331.196.417.385.196.761.256 1.318.21.505-.04.552-.057.552-.197 0-.184-.273-.395-.876-.677-.45-.21-.742-.248-1.03-.134Zm-2.53.92c-.08.086-.124.248-.124.451v.317h.416c.416 0 .417.001.963.493.425.384.596.494.764.494.179 0 .233-.042.319-.245.104-.245.136-.859.06-1.139-.077-.284-.861-.52-1.703-.512-.466.005-.593.03-.695.14Zm2.726 1.011c0 .39.023.47.159.564.232.16.544.134.814-.07.197-.149.239-.227.239-.447 0-.393-.159-.5-.736-.5h-.476v.453Zm2.662.287c-.065.168.11.75.3.996.103.134.307.271.511.343.187.067.511.2.72.297.415.191.741.186 1.052-.016.132-.085.171-.173.171-.385 0-.311-.144-.497-.386-.497-.391 0-1.359-.441-1.601-.73-.129-.153-.708-.16-.767-.008Zm-18.881 1.132c.107.276.036.421-.35.716-.305.233-.453.3-.665.3-.491 0-.728-.513-.363-.787.417-.313 1.289-.459 1.378-.23Zm-13.605.857c-.177.42-.525.607-1.307.698-.329.039-.35.03-.568-.23-.242-.29-.287-.45-.127-.45.055 0 .175-.063.267-.14.146-.12.28-.138 1.007-.14l.838-.002-.11.264Zm39.207 2.882c-.091.09-.047.627.063.782.094.132.178.157.535.157h.423v-.347c0-.291-.03-.37-.188-.493-.183-.143-.724-.207-.833-.1Zm-2.934 25.875c-.785.082-1.369.253-2.138.628-1.274.621-2.202 1.54-2.816 2.787-.529 1.075-.603 1.417-.6 2.782.003 1.082.017 1.204.204 1.761.359 1.072.839 1.853 1.583 2.578 1.139 1.109 2.478 1.688 4.088 1.766 1.312.065 2.432-.21 3.594-.881.562-.325 1.535-1.257 1.939-1.858 1.275-1.895 1.364-4.454.227-6.465-1.179-2.084-3.661-3.348-6.081-3.098Zm-23.195 6.092v6.022h4.988v-1.76h-3.064V56.598h-1.924v6.023Zm-7.793-5.899c-.183.293-5.095 11.818-5.053 11.858.072.069 1.922.107 1.989.04.029-.027.344-.771.7-1.651l.648-1.601 2.142-.019 2.143-.018.697 1.62.697 1.622h1.024c.563 0 1.024-.013 1.024-.028 0-.016-1.118-2.686-2.485-5.935l-2.486-5.906-.501-.02c-.276-.012-.518.005-.539.038Zm14.705 5.97v6.022h1.657c1.94-.001 2.75-.1 3.681-.445.912-.338 1.38-.636 2.071-1.316.894-.88 1.316-1.668 1.585-2.955.261-1.245.104-2.902-.378-3.985-.522-1.172-1.534-2.177-2.739-2.716-1.045-.469-2.144-.627-4.363-.628h-1.514v6.022Zm17.951-4.224c.725.169 1.398.556 2.009 1.156.846.831 1.276 1.839 1.276 2.99 0 1.176-.414 2.148-1.28 3.003-.875.866-1.829 1.263-3.031 1.263-1.222 0-2.155-.395-3.068-1.298-.879-.87-1.244-1.737-1.244-2.961 0-.733.127-1.288.438-1.911.528-1.06 1.666-1.964 2.825-2.241.546-.131 1.515-.132 2.075-.002Zm-14.078.135c1.09.193 2.072.803 2.632 1.635.517.77.651 1.234.654 2.277.004 1.076-.162 1.66-.691 2.442-.858 1.267-2.19 1.915-3.956 1.923l-.588.002v-8.382l.695.003a9.02 9.02 0 0 1 1.254.1Zm-17.397 3.259c.38.917.682 1.678.669 1.69-.012.013-.649.014-1.416.004l-1.393-.02.688-1.672c.379-.92.704-1.672.724-1.672.02.001.347.753.728 1.67Zm-16.726 10.478c-2.463.538-4.26 2.284-4.856 4.72-.178.73-.164 2.014.031 2.797.543 2.177 2.21 3.88 4.412 4.51.735.21 2.432.227 3.156.031.447-.12 1.898-.785 2.158-.988.114-.089.124-.225.107-1.416l-.02-1.318-.249.33c-.481.64-1.457 1.248-2.356 1.469-.583.143-1.68.148-2.205.01-2.094-.55-3.532-2.646-3.212-4.684.228-1.45 1.034-2.599 2.26-3.219.786-.398 1.144-.48 2.057-.476.662.004.858.032 1.264.185.726.273 1.234.599 1.886 1.212l.591.555-.035-.414a51.181 51.181 0 0 1-.079-1.32l-.044-.904-.422-.27a6.297 6.297 0 0 0-2-.803c-.659-.134-1.848-.137-2.444-.007Zm11.577 0c-2.013.397-3.817 1.896-4.56 3.788a6.287 6.287 0 0 0 .172 4.943c.613 1.304 1.888 2.5 3.239 3.04.888.354 1.26.416 2.47.412 1.048-.004 1.19-.02 1.746-.2 2.061-.666 3.486-2.075 4.175-4.128.186-.557.201-.68.204-1.761.004-1.337-.067-1.675-.571-2.712-.869-1.788-2.473-3.013-4.438-3.387-.637-.121-1.806-.119-2.437.005Zm31.331.007c-1.185.261-2.119.752-2.986 1.57-.658.621-1.031 1.135-1.406 1.938-.415.888-.535 1.47-.53 2.579.004 1.124.115 1.632.565 2.58.377.795.717 1.255 1.408 1.902 1.262 1.183 2.75 1.71 4.597 1.628 3.06-.136 5.486-2.408 5.858-5.487.141-1.165-.063-2.261-.634-3.405-.776-1.557-2.042-2.619-3.781-3.172-.516-.164-.754-.197-1.604-.217-.715-.018-1.136.006-1.487.084ZM140.396 78.4v5.952h1.996v-4.84l.796-.047c1.328-.08 2.028-.33 2.738-.98.799-.731 1.136-1.625 1.079-2.868-.052-1.166-.449-1.94-1.283-2.507-.783-.532-1.524-.662-3.763-.662h-1.563V78.4Zm8.837-.008v5.96h1.995v-4.839l.766-.044c1.418-.081 2.249-.411 2.959-1.175.607-.653.905-1.464.906-2.468.003-1.657-.833-2.774-2.403-3.212-.316-.089-.85-.123-2.317-.148l-1.906-.033v5.96Zm22.59.008v5.952h5.059V82.59h-3.135V72.448h-1.924V78.4Zm11.221-5.878c-.028.044-1.2 2.7-2.605 5.902l-2.554 5.822.443.045c.243.024.715.047 1.048.051l.606.007.653-1.601.652-1.601 2.198-.017 2.198-.016.68 1.566.68 1.566 1.048.02c.576.01 1.048.01 1.048 0 0-.011-1.135-2.667-2.522-5.901l-2.521-5.882-.501-.02c-.319-.014-.519.008-.551.059Zm-49.471 1.776a4.25 4.25 0 0 1 1.718 1.108c.518.542.925 1.272 1.085 1.945.157.661.105 1.797-.111 2.403-.418 1.175-1.468 2.213-2.658 2.627-.618.216-1.84.27-2.471.11-1.235-.312-2.205-1.08-2.817-2.23-.361-.681-.487-1.289-.443-2.143.058-1.144.432-1.974 1.256-2.788a4.339 4.339 0 0 1 1.938-1.123c.732-.196 1.821-.157 2.503.091Zm31.269-.034c1.35.472 2.369 1.446 2.775 2.653.546 1.621.151 3.267-1.071 4.474-.814.803-1.8 1.2-2.982 1.2-1.265 0-2.195-.381-3.074-1.26-.617-.616-.935-1.161-1.14-1.952a4.22 4.22 0 0 1 1.59-4.44c.578-.421.882-.57 1.501-.736.656-.176 1.806-.147 2.401.061Zm-20.856.115c.508.118.741.279.956.659.335.591.266 1.499-.147 1.965-.375.422-.696.537-1.602.573l-.801.031V74.28l.588.001c.323 0 .776.045 1.006.099Zm8.715-.022c.249.043.556.147.683.231.683.455.818 1.72.256 2.394-.364.436-.692.557-1.61.594l-.802.031V74.28h.511c.281 0 .714.035.962.078Zm31.539 3.251c.382.9.695 1.661.695 1.69 0 .029-.642.053-1.426.053-.784 0-1.425-.023-1.425-.05 0-.093 1.383-3.331 1.422-3.33.021 0 .352.737.734 1.637Zm18.113 6.362c.064.254-.031 1.022-.148 1.19-.053.076-.097.284-.097.46 0 .247-.127.61-.542 1.552a171.3 171.3 0 0 0-1.464 3.484c-.928 2.27-1.721 3.87-3.007 6.071a31.411 31.411 0 0 0-.703 1.255c-.118.24-.211.337-.352.365-.153.03-.328.24-.857 1.033-.365.548-.899 1.27-1.188 1.604a32.938 32.938 0 0 0-1.217 1.55c-.382.518-.824 1.037-.984 1.153-.225.164-.282.246-.254.367.029.126-.127.31-.843.986a471.21 471.21 0 0 0-2.342 2.239 50.156 50.156 0 0 1-2.781 2.463 112.91 112.91 0 0 0-3.637 3.03c-.243.214-.477.389-.521.389-.25 0-1.025.465-1.409.845-.372.367-.526.461-1.165.708a9.603 9.603 0 0 0-1.366.679c-.346.218-.698.391-.783.386-.091-.006-.199.061-.268.164-.166.252-.44.408-.816.466-.592.092-1.027.298-1.419.672-.262.25-.453.371-.632.4-.141.022-.312.09-.379.15-.068.061-.312.158-.544.218a6.19 6.19 0 0 0-.874.316c-.53.243-.651.257-.651.074 0-.086.122-.204.338-.328.187-.106.451-.28.588-.386.138-.105.458-.244.713-.308.495-.124.838-.307 2.352-1.253a95.162 95.162 0 0 1 2.592-1.532c1.872-1.066 3.126-1.869 4.381-2.801.484-.359 1.02-.715 1.191-.79.512-.224.953-.554 1.741-1.305a43.968 43.968 0 0 1 1.318-1.203 55.455 55.455 0 0 0 1.642-1.511c.59-.562 1.409-1.339 1.82-1.726.569-.537.811-.823 1.012-1.198.184-.344.361-.563.586-.724.176-.128.454-.397.616-.599.275-.342.702-1.122.702-1.283 0-.039.144-.16.319-.27.423-.263.572-.449 1.182-1.469.284-.473.859-1.385 1.278-2.026a89.31 89.31 0 0 0 1.276-2.01c.283-.464.62-.94.749-1.057.28-.253.479-.623.644-1.198a5.23 5.23 0 0 1 .438-.96c.376-.638.8-1.586 1.035-2.315a5.15 5.15 0 0 1 .406-.916c.446-.73.883-1.71 1.018-2.28.2-.847.846-2.662 1.013-2.844.186-.204.236-.2.293.023Zm-31.931 34.43a1.695 1.695 0 0 1-.452.361c-.331.164-1.126.388-1.375.388h-.199l.198-.245c.26-.323 1.25-.713 1.864-.735l.167-.006-.203.237Z" fill="#fff" opacity=".5"/></symbol><symbol fill="none" viewBox="0 0 306 144" id="static--brends--alterna-logo" xmlns="http://www.w3.org/2000/svg"><path fill-rule="evenodd" clip-rule="evenodd" d="M144.332 23.229c-2.142.35-5.912 1.552-7.548 2.406l-1.056.55 2.621.152c6.4.37 12.148 2.19 16.841 5.33l1.634 1.095 3.997.083c3.442.072 4.273.168 6 .694 1.102.336 2.042.648 2.087.694.046.045-2.012.083-4.573.083-2.561 0-4.738.082-4.839.182-.1.1.297.576.883 1.06 2.043 1.682 5.5 5.338 7.156 7.569 2.896 3.898 4.962 7.958 5.977 11.742.23.86.493 1.65.583 1.756.091.106.357-.76.591-1.923.552-2.739.562-7.18.023-10.018-2-10.538-10.25-18.982-20.73-21.216-2.368-.505-7.282-.627-9.647-.24Zm-9.579 4.668c-1.1 1.213-3.016 6.53-3.545 9.84-.371 2.314-.301 7.552.134 10.04.537 3.075 1.823 6.725 3.528 10.018 1.703 3.288 2.163 3.854 1.876 2.307-.471-2.531-.53-6.547-.135-9.228 1.244-8.452 5.817-14.208 13.152-16.554.728-.233 1.413-.504 1.521-.602.309-.281-2.823-2.384-5.778-3.88-3.069-1.554-6.066-2.373-8.682-2.373-1.31 0-1.765.095-2.071.432Zm-3.796 1.585c-3.993 3.432-7.039 8.416-8.425 13.786-.635 2.46-.87 7.275-.484 9.91 1.082 7.386 5.039 13.914 10.966 18.09 1.505 1.06 4.686 2.833 5.083 2.833.082 0-.321-.55-.897-1.221-3.696-4.315-6.831-9.605-8.25-13.924-3.041-9.254-2.034-19.73 2.767-28.787.649-1.223 1.145-2.223 1.104-2.223-.041 0-.88.691-1.864 1.536Zm21.455 7.086c-2.274.727-4.858 2.244-6.575 3.86-1.885 1.773-3.303 4.366-3.8 6.946-.424 2.206-.148 6.567.61 9.622 1.183 4.77 4.184 11.424 7.446 16.504l1.543 2.404 1.05-.067c.578-.037 1.81-.273 2.737-.525 4.317-1.174 8.075-3.294 11.479-6.477l2.16-2.02-.149-1.585c-.943-10.009-4.247-17.768-10.849-25.478-2.217-2.59-3.385-3.645-4.003-3.62-.178.007-.92.203-1.649.436Zm-80.688 65.463c-4.703 6.498-9.715 13.419-11.137 15.38L58 120.977h3.34l4.409-6.13 4.409-6.13h9.988l.064 6.07.064 6.07 1.507.071 1.508.072-.063-15.336-.061-15.337-1.446-.055-1.445-.056-8.55 11.815Zm136.809.811c0 8.09-.084 12.583-.233 12.49-.129-.079-4.959-5.71-10.735-12.514l-10.502-12.37h-2.616v30.289h3.127l.062-12.539.063-12.537 3.767 4.424c2.071 2.434 6.872 8.076 10.666 12.538l6.9 8.114h2.706l-.156-2.705c-.086-1.487-.157-8.356-.157-15.265l-.002-12.56h-2.89v12.635Zm7.226 2.63v15.265h3.131v-12.02h10.021l4.323 5.995 4.323 5.996 1.646.014c.905.008 1.61-.081 1.565-.198-.044-.117-5.012-6.982-11.039-15.255L218.77 90.227l-1.506-.01-1.505-.01v15.265Zm-128.38.24v15.265l9.575-.009 9.574-.01.843-1.127c.464-.62.879-1.21.923-1.313.045-.102-3.939-.185-8.851-.185H90.51V90.447h-3.13v15.265Zm14.865-14.069c-.492.658-.894 1.253-.894 1.322 0 .07 2.655.127 5.901.127h5.901V121l1.505-.072 1.506-.071-.098-13.883-.098-13.882h10.329l.895-1.196c.492-.658.894-1.253.894-1.322 0-.07-5.613-.127-12.473-.127h-12.474l-.894 1.196Zm29.023 8.48c.034 5.322.094 12.137.135 15.145l.073 5.469h19.928l.847-1.142.848-1.142-9.375-.063-9.375-.063v-11.052h16.275l.895-1.196c.492-.658.894-1.253.894-1.322 0-.07-4.064-.127-9.032-.127h-9.032V93.092h16.516l.895-1.196c.492-.658.894-1.253.894-1.322 0-.07-4.825-.127-10.723-.127h-10.724l.061 9.676Zm25.962 5.454v15.16h3.132v-13.504l3.914.083c4.583.097 4.909.211 6.576 2.31.601.756 2.47 3.565 4.153 6.242l3.06 4.868h1.774l1.774.001-.355-.541c-.195-.298-1.9-2.951-3.788-5.896-2.203-3.435-3.905-5.814-4.748-6.635l-1.314-1.281 1.24-.147c2.751-.325 5.143-2.07 6.433-4.693.57-1.159.668-1.65.656-3.307-.011-1.618-.125-2.174-.676-3.297-.81-1.654-2.397-3.092-4.212-3.82-1.304-.523-1.696-.549-9.489-.624l-8.13-.078v15.159Zm16.747-11.764c1.181.591 1.877 1.127 2.346 1.804.811 1.17 1.09 3.019.656 4.332-.426 1.288-2.015 2.911-3.722 3.802l-1.454.759-5.721.076-5.72.076V92.808l5.968.082 5.967.081 1.68.842Zm48.888 6.529c2.12 2.926 3.89 5.412 3.934 5.525.045.113-1.717.206-3.914.206h-3.994l-.001-2.825a117.46 117.46 0 0 0-.157-5.529c-.09-1.564-.065-2.703.061-2.7.12.002 1.952 2.397 4.071 5.323Zm-142.71.322v5.409H76.18c-2.186 0-3.975-.064-3.975-.141 0-.181 7.716-10.677 7.85-10.677.054 0 .099 2.434.099 5.409Zm163.389 15.007c-.871.53-1.404 1.832-1.176 2.869.083.378.478.999.878 1.381.603.578.931.695 1.933.695 1.087 0 1.29-.09 2.032-.898 1.202-1.309 1.012-3.126-.432-4.135-.734-.513-2.318-.47-3.235.088Zm2.841.277c.761.406 1.192 1.677.913 2.688-.448 1.62-2.243 2.12-3.58.997-.623-.523-.741-.792-.741-1.693 0-.817.141-1.212.592-1.662.644-.643 1.945-.795 2.816-.33Zm-2.203 2.01c0 .891.104 1.577.24 1.577.133 0 .241-.325.241-.722 0-.396.103-.721.227-.721.125 0 .42.325.655.721.234.397.511.722.616.722.287 0 .226-.32-.17-.884-.318-.453-.316-.526.017-.653.242-.093.347-.376.297-.806-.068-.593-.183-.67-1.1-.736l-1.023-.074v1.576Zm1.608-.923c.15.389-.274.806-.826.813-.165.002-.301-.267-.301-.597 0-.444.128-.601.49-.601.269 0 .555.173.637.385Z" fill="#fff" opacity=".5"/></symbol><symbol fill="none" viewBox="0 0 306 144" id="static--brends--k-logo" xmlns="http://www.w3.org/2000/svg"><path fill-rule="evenodd" clip-rule="evenodd" d="M119 54.792c0 35.309.013 36.906.325 39.626.179 1.56.413 3.248.52 3.753.97 4.603 2.924 8.024 5.956 10.433 2.759 2.192 7.212 3.607 12.175 3.867l2.099.111-.044-11.506c-.024-6.329-.024-14.472 0-18.098l.044-6.59 2.418 2.665c3.421 3.773 3.489 3.85 4.887 5.423.692.78 1.299 1.457 1.347 1.502a2261.9 2261.9 0 0 1 7.973 8.918l2.937 3.275a769.14 769.14 0 0 0 3.155 3.508c.212.229 1.233 1.374 2.268 2.543l1.883 2.126 10.118.004c8.958.003 10.67-.058 9.992-.359-.07-.03-.693-.694-1.385-1.475a411.94 411.94 0 0 0-1.428-1.604c-.092-.101-.631-.702-1.197-1.336-6.91-7.736-10.434-11.673-11.062-12.359-.092-.1-.621-.701-1.175-1.334a176.981 176.981 0 0 0-3.293-3.658c-.67-.725-1.398-1.544-3.928-4.416a96.412 96.412 0 0 0-1.466-1.6 35.013 35.013 0 0 1-1.29-1.446c-.329-.415-.329-.417.037-.823.202-.224.934-1.044 1.627-1.823a206.52 206.52 0 0 1 1.428-1.597 555.19 555.19 0 0 0 2.518-2.814c.282-.317 3.011-3.342 3.191-3.536.092-.1.659-.732 1.26-1.406.6-.673 1.167-1.305 1.259-1.405.092-.1.425-.482.74-.85.315-.367 1.19-1.344 1.946-2.17.756-.827 1.67-1.842 2.031-2.255.361-.414.697-.79.746-.835.049-.046 1.331-1.474 2.849-3.174 1.518-1.7 2.801-3.127 2.85-3.173.049-.046.655-.723 1.346-1.504.692-.78 1.541-1.72 1.888-2.087.346-.368.631-.725.632-.794.001-.069-4.554-.125-10.122-.125h-10.124l-.53.626c-.718.849-1.296 1.5-2.034 2.297-.34.367-2.129 2.36-3.974 4.426a818.057 818.057 0 0 1-3.441 3.841c-.048.046-1.596 1.775-3.44 3.842a597.077 597.077 0 0 1-3.444 3.842c-.05.046-1.027 1.135-2.171 2.421a326.818 326.818 0 0 1-2.852 3.174c-.425.46-1.339 1.473-2.032 2.252-.692.78-1.399 1.57-1.57 1.754-.171.185-.501.58-.734.88-.232.298-.489.542-.571.542-.087 0-.132-12.204-.106-29.145L140.075 18H119v36.792Zm.71 64.226c-.164.106-.203.918-.168 3.467l.046 3.329h1.175l.051-1.166c.046-1.073.32-1.757.703-1.757.062 0 .584.676 1.159 1.503l1.046 1.503h.839c.979 0 1.035.176-.654-2.072-.684-.91-1.273-1.737-1.31-1.837-.037-.101.498-.774 1.188-1.497.691-.722 1.21-1.389 1.152-1.48-.057-.092-.418-.132-.802-.089-.595.066-.847.234-1.699 1.128a265.86 265.86 0 0 1-1.253 1.309c-.225.23-.261.115-.336-1.068-.08-1.265-.103-1.327-.504-1.369-.23-.024-.515.02-.633.096Zm6.459-.029c-.064.064-.116 1.646-.116 3.516v3.401l2.477-.046 2.477-.046v-1.17l-1.889-.047-1.89-.047v-1.659h3.191v-1.157l-1.553-.048-1.554-.048v-1.336l1.815-.048 1.815-.047-.051-.621-.052-.62-2.277-.047c-1.252-.025-2.329.006-2.393.07Zm5.668.107c-.045.118.396 1.678.98 3.466l1.063 3.252h1.433l.719-2.172c1.134-3.425 1.44-4.399 1.44-4.586 0-.096-.288-.174-.641-.174-.723 0-.618-.216-1.644 3.382-.255.896-.524 1.629-.598 1.629-.073 0-.181-.207-.239-.46-.286-1.249-1.309-4.315-1.475-4.423-.306-.199-.948-.145-1.038.086Zm6.513-.078c-.164.106-.203.918-.168 3.467l.046 3.329h1.175v-6.848l-.42-.044c-.231-.024-.516.02-.633.096Zm2.351.004c-.164.103-.203.912-.168 3.463l.046 3.329h1.175l.084-2.339.084-2.338.656 1.169c.36.643.97 1.695 1.355 2.338.699 1.167.702 1.17 1.444 1.17h.743l.046-3.387c.049-3.678.042-3.708-.881-3.477-.413.103-.415.113-.461 2.398l-.047 2.294-.443-.751a72.668 72.668 0 0 1-.902-1.587c-.85-1.544-1.14-2.003-1.4-2.213-.291-.235-1.009-.273-1.331-.069Zm8.769.074c-.046.117-.062 1.677-.037 3.465l.046 3.253.63.051.629.052v-2.298c0-2.438.122-2.651.558-.979.144.551.399 1.491.567 2.088l.306 1.086.69.05c.547.04.709-.013.78-.251.05-.165.32-1.155.602-2.199.281-1.045.553-1.941.603-1.991.051-.05.092.936.092 2.191v2.283h1.344v-3.406c0-3.745.039-3.612-1.063-3.606-.761.003-.963.187-1.212 1.104l-.58 2.15c-.387 1.441-.586 1.798-.729 1.311-.71-2.411-1.118-3.913-1.118-4.116 0-.325-.359-.452-1.279-.452-.452 0-.779.084-.829.214Zm8.027-.103c-.273.109-.289 4.103-.021 5.162.47 1.858 2.959 2.479 4.358 1.088.656-.653.825-1.468.826-3.978l.001-2.21-.419-.104c-.879-.22-.924-.102-.927 2.39-.003 2.536-.133 3.016-.888 3.265-.616.204-1.437-.129-1.642-.667-.085-.221-.154-1.404-.154-2.628 0-1.876-.042-2.242-.266-2.328a1.104 1.104 0 0 0-.868.01Zm6.247.103c-.046.117-.062 1.677-.037 3.465l.046 3.253h1.175l.084-1.297c.046-.713.141-1.295.21-1.294l1.008.004c1.246.004 1.371.127 1.469 1.453l.084 1.134.652.053.652.053-.078-1.346c-.056-.954-.163-1.437-.368-1.663-.275-.302-.268-.34.14-.778.918-.985.315-2.664-1.087-3.029-1.068-.278-3.844-.284-3.95-.008Zm6.586-.103c-.062.062-.112 1.64-.112 3.508v3.396h1.161l.049-1.211.049-1.211 1.184-.083c1.934-.137 2.69-.856 2.559-2.435-.132-1.584-.944-2.052-3.589-2.068-.654-.004-1.24.043-1.301.104Zm5.84.103c-.045.117-.062 1.677-.036 3.465l.045 3.253h1.176l.048-1.462.049-1.461h2.828l.049 1.461.048 1.462h1.176l.045-3.379.046-3.378-.423-.105c-.814-.203-.928-.028-.928 1.428v1.341h-2.854v-1.318c0-1.048-.055-1.339-.266-1.42-.44-.167-.915-.114-1.003.113Zm6.068-.069c-.039.064.393.941.962 1.948 1.011 1.789 1.037 1.867 1.121 3.335l.087 1.504h1.175l.084-1.42c.07-1.182.162-1.538.546-2.126.254-.389.462-.748.462-.799 0-.05.298-.615.662-1.255l.663-1.163-.411-.103c-.824-.205-1.136.041-1.817 1.439-.358.734-.704 1.334-.768 1.334-.064 0-.353-.507-.641-1.127-.288-.62-.595-1.231-.683-1.358-.167-.243-1.317-.41-1.442-.209Zm-14.635 1.454c.326.324.337.743.03 1.16-.181.248-.499.333-1.427.385l-1.194.067v-1.875h1.164c.833 0 1.238.075 1.427.263Zm5.984-.09c.219.117.324.348.323.71-.005.887-.199 1.034-1.376 1.036l-1.057.002-.052-.729c-.029-.401-.013-.833.037-.96.107-.279 1.633-.321 2.125-.059Zm-26.375 4.764v.762l.63-.052c.611-.05.631-.072.681-.761l.052-.71h-1.363v.761Z" fill="#fff" opacity=".5"/></symbol><symbol fill="none" viewBox="0 0 306 144" id="static--brends--oribe-logo" xmlns="http://www.w3.org/2000/svg"><path fill-rule="evenodd" clip-rule="evenodd" d="M146.46 12.473c-23.536 3.449-40.72 25.154-38.218 48.273 1.135 10.487 4.902 18.587 12.151 26.125 6.399 6.655 14.335 11.175 23.044 13.126 4.724 1.057 15.413 1.068 19.776.018 13.431-3.23 24.061-11.504 30.178-23.492 1.13-2.214 2.623-5.849 3.317-8.076 1.153-3.7 1.265-4.732 1.291-11.897.032-9.093-.64-12.216-4.171-19.383-8.573-17.4-28.006-27.531-47.368-24.694Zm4.073 3.31c-4.216 4.11-3.703 7.377 1.645 10.464 6.58 3.796 7.6 6.337 5.487 13.658-2.096 7.26.697 10.761 10.713 13.43 8.311 2.215 11.517 4.41 11.863 8.125.155 1.66.121 1.77-.191.629-.592-2.169-1.368-3.335-3.008-4.523-1.96-1.42-3.406-1.945-8.549-3.105-7.106-1.604-11.34-4.035-13.24-7.602-1.163-2.181-.958-6.009.497-9.332 2.206-5.034 1.41-7.684-3.001-10.002-3.931-2.066-5.479-3.367-5.819-4.89-.494-2.213.192-4.137 2.267-6.352l1.93-2.061-1.865.764c-2.371.972-2.948 1.55-3.75 3.768l-.652 1.798-.02-1.858c-.036-3.255 1.7-4.75 5.58-4.804l2.085-.03-1.972 1.923Zm15.986-.476c3.251 1.03 10.647 4.525 10.647 5.031 0 .18-.812.455-1.805.611-3.453.544-5.745 3.331-5.632 6.85.036 1.13.143 1.487.248.83.63-3.938 1.611-5.077 4.376-5.077 2.867 0 3.914 1.28 3.647 4.457-.457 5.414-5.297 8.368-10.726 6.546-2.922-.98-5.462-3.024-6.071-4.884-.783-2.392-1.174-2.772-3.207-3.11-2.681-.446-4.565-1.783-5.206-3.695-.671-2.003-.297-4.456.828-5.421 1.131-.97 2.954-1.86 3.239-1.58.131.13-.424.572-1.232.984-1.979 1.006-2.556 2.599-1.685 4.649.372.876.832 1.593 1.023 1.593.192 0 1.133-.855 2.094-1.9 1.458-1.586 1.8-2.355 2.072-4.66l.325-2.76 2.077.306c1.142.169 3.387.722 4.988 1.23Zm-24.525.977c-.498 1.078-.909 2.699-.915 3.6-.013 2.186-.655 2.774-2.342 2.147-1.144-.425-1.515-.326-2.811.747-1.687 1.397-2.462 1.532-3.274.569-.762-.905-.428-2.836.459-2.646.542.116.569.026.125-.419-.825-.827-2.012.282-2.012 1.88 0 1.563 1.635 3.698 2.831 3.698.488 0 1.629-.348 2.534-.773 1.54-.723 1.703-.723 2.514 0 1.206 1.075 2.094.967 3.302-.4 1.154-1.308 1.99-1.17 1.608.265-.401 1.512-1.824 1.926-8.065 2.346-7.451.503-10.931 1.137-13.615 2.482-4.332 2.171-6.084 5.395-6.099 11.225-.011 4.087-.571 5.864-1.712 5.433-.389-.147-.566-.061-.405.195.468.746 2.039.52 2.519-.364.245-.45.676-2.449.957-4.44.996-7.046 3.236-10.155 8.006-11.11l1.641-.328-2.16 1.374c-2.989 1.903-4.306 4.656-4.279 8.946.038 5.952 3.374 10.076 8.438 10.433 2.232.157 2.908.02 3.978-.813.709-.55 1.289-1.23 1.289-1.51s-.539-.01-1.198.6c-2.389 2.21-6.134 1.108-7.933-2.332-1.64-3.138-1.189-8.045 1.034-11.219 2.783-3.974 4.093-3.345 7.398 3.552 3.601 7.515 4.364 7.82 7.09 2.831l1.47-2.688.312 2.724c.794 6.925-2.143 16.744-5.486 18.338-1.728.824-3.902.244-4.355-1.162-.459-1.421.454-2.033 1.998-1.34 1.29.578 1.291.577.409-.382-1.063-1.156-2.925-1.246-4.101-.198-1.219 1.086-1.158 4.053.101 4.922.84.579.864.696.196.949-1.08.408-2.172.36-4.895-.215-2.925-.617-5.166-2.354-5.166-4.002 0-2.817 3.574-3.995 4.888-1.61.659 1.196.701 1.21.719.23.044-2.476-3.559-3.723-6.451-2.23-1.47.757-3.956 3.261-4.751 4.785-.465.892-.795 1.01-2.14.761-1.301-.24-1.8-.085-2.755.855l-1.167 1.148-.329-3.026c-1.756-16.144 7.519-33.156 22.603-41.46 2.304-1.27 9.77-4.256 10.807-4.324.052-.003-.313.877-.81 1.956Zm38.453 6.807c.516.508.931 1.287.924 1.73-.014.75-.05.749-.51-.03-.273-.462-1.164-1.24-1.979-1.73-1.33-.799-1.374-.89-.427-.891.58-.001 1.476.413 1.992.92Zm-30.237 5.207c1.289.635 2.761 1.608 3.271 2.164 1.383 1.506 1.226 4.148-.361 6.069-4.767 5.767-4.908 7.13-1.264 12.267 1.771 2.497 2.531 4.04 2.695 5.473.219 1.911.124 2.097-2.291 4.447-1.385 1.349-5.749 4.6-9.698 7.226-8.994 5.979-12.369 8.734-13.947 11.385-2.12 3.56-1.298 5.323 4.016 8.616l2.578 1.598v-4.65c0-4.269.112-4.85 1.358-7.064 1.136-2.017 3.687-5.046 3.022-3.587-.115.254-.589 1.282-1.052 2.286-2.802 6.073-1.755 13.555 2.698 19.29.937 1.205 1.56 2.192 1.386 2.192-.175 0-2.019-1.716-4.099-3.811-2.263-2.28-5.146-4.605-7.179-5.789-3.596-2.094-4.806-3.626-4.806-6.087 0-3.818 3.551-7.358 14.956-14.91 8.173-5.412 11.535-8.264 12.029-10.203.34-1.33-.52-3.167-3.231-6.91-2.966-4.094-2.934-7.924.097-11.7 3.506-4.366 3.566-5.53.374-7.109-2.575-1.272-5.005-3.086-5.005-3.735 0-.285.475-.09 1.055.434.579.524 2.109 1.472 3.398 2.108Zm34.122-.125c4.076 3.156-.48 9.448-7.819 10.8l-1.824.337 1.717 1.393c2.032 1.648 3.119 3.54 3.061 5.325-.04 1.225-.066 1.209-.505-.323-.727-2.54-3.055-4.564-7.773-6.759-4.551-2.117-5.538-2.785-2.579-1.745 4.094 1.438 9.285.17 13.054-3.189 2.283-2.035 2.805-3.718 1.597-5.15-.756-.898-2.533-.891-3.294.012-.47.557-.477.962-.032 1.923.501 1.083.483 1.152-.165.622-1.055-.861-.895-2.623.313-3.456 1.41-.973 2.812-.903 4.249.21Zm-38.846.436c2.475.565 4.224 1.924 4.405 3.422.107.889-.45 2.017-1.997 4.043-1.18 1.546-2.275 3.319-2.433 3.94-.492 1.93.093 4.857 1.683 8.42 2.75 6.163 1.466 10.564-3.877 13.296-1.967 1.006-3.08 1.247-5.817 1.263-2.998.016-3.507-.11-4.454-1.108-.587-.62-.72-.87-.294-.558 2.66 1.954 6.793 1.374 9.997-1.402 4.22-3.657 5.02-7.296 2.849-12.962-1.279-3.337-1.541-6.684-.652-8.327.3-.554 1.378-2.095 2.396-3.425 3.045-3.978 1.697-5.633-5.293-6.492-3.485-.43-3.491-.433-.93-.48 1.418-.028 3.406.14 4.417.37Zm-3.768 2.674c-.706 2.927-2.54 8.267-3.096 9.015-.536.72-.915.345-3.53-3.491-1.611-2.364-2.93-4.639-2.93-5.056 0-.94 2.78-1.618 6.923-1.688l2.939-.05-.306 1.27Zm46.232 3.339c-.325.774-1.747 2.446-3.159 3.717-2.92 2.627-2.886 2.853.722 4.935 2.212 1.276 5.975 1.68 7.826.838.836-.38.868-.342.296.35-2.124 2.57-7.74 1.752-11.601-1.69l-2.254-2.008 1.857-.865c2.252-1.05 5.739-4.476 6.135-6.03.159-.62.397-1.023.53-.892.132.13-.026.87-.352 1.645Zm4.678 2.907c.004.2-.4.148-.899-.115-1.08-.57-1.437-.6-1.437-.126 0 .194.474.557 1.054.808.638.275 1.112.94 1.199 1.68.281 2.39-3.635 3.645-5.535 1.775-1.201-1.183-1.196-1.227.47-3.692.772-1.142 1.64-2.776 1.928-3.631l.524-1.555 1.344 2.247c.739 1.236 1.347 2.41 1.352 2.61Zm-67.173-3.46c-1.446 1.572-2.325 4.44-2.361 7.702-.04 3.551-.65 2.486-.73-1.273-.065-3.104 1.868-7.254 3.38-7.254.258 0 .128.371-.289.825Zm44.135 6.144c1.107.065-1.285.774-2.804.83-1.026.039-1.368-.272-1.992-1.809-1.148-2.824-.953-2.935 1.632-.924 1.312 1.021 2.736 1.877 3.164 1.903Zm-6.933 1.454c1.149 3.108 1.464 3.191 5.692 1.5 1.586-.635 3.49-1.154 4.231-1.154 1.752 0 3.441 1.683 4.098 4.083.948 3.468-.622 5.948-2.398 3.788-.666-.809-.865-.88-.865-.307 0 1.019 1.593 2.502 3.085 2.87 2.714.671 6.291-2.723 6.291-5.969v-1.11l2.189 1.092c1.566.78 2.977 1.09 4.958 1.09 2.435 0 2.935-.162 4.137-1.345.752-.74 1.455-1.204 1.564-1.032.242.386 1.037 4.985 1.427 8.26.286 2.398.279 2.415-.795 1.933-1.693-.76-3.546.17-4.414 2.213-.639 1.507-.66 2.43-.162 7.271.313 3.05.495 6.688.404 8.084l-.167 2.538-.827-3.23c-2.699-10.536-8.43-16.6-19.433-20.563-10.182-3.669-12.124-5.179-12.034-9.355.028-1.314.314-3.011.636-3.773.67-1.584.623-1.645 2.383 3.116Zm-5.618 10.153c1.65 2.243 1.828 4.917.471 7.107-.495.8-2.555 2.817-4.577 4.484-4.324 3.563-6.599 6.36-8.601 10.57-3.223 6.781-2.032 15.352 2.903 20.885 3.474 3.895 9.773 4.893 9.773 1.549 0-.988-1.636-1.218-2.062-.29-.146.317-.215.161-.152-.346.134-1.087 1.932-1.497 2.943-.671 1.082.884.799 2.585-.612 3.684-1.06.826-1.687.958-3.533.746-8.008-.922-14.736-10.57-13.763-19.737.68-6.402 3.672-10.985 10.678-16.353 5.811-4.453 7.149-6.154 6.816-8.662-.13-.97-.8-2.602-1.49-3.629-1.585-2.36-.632-1.835 1.206.663Zm39.745 5.623c.095.491-.22 1.194-.699 1.562-.77.591-.775.637-.051.391.667-.226.821-.008.821 1.169 0 2.318-1.015 7.405-1.393 6.984-.521-.58-1.603-9.633-1.257-10.52.41-1.052 2.355-.74 2.579.414Zm-24.838 4.645c4.682 1.91 6.366 3.22 6.783 5.272.65 3.2-1.963 6.893-5.585 7.892-1.7.468-2.421.447-4.173-.12-2.406-.78-2.634-.528-.94 1.039 1.704 1.576 5.924 1.832 8.54.518 4.262-2.14 6.425-6.545 6.149-12.524-.162-3.513-.139-3.605.703-2.854 2.285 2.036 4.064 6.81 4.76 12.777.453 3.875-.012 3.049-1.134-2.016-.525-2.365-1.479-5.371-2.121-6.68l-1.166-2.38.335 1.846c.957 5.272-.07 9.083-3.257 12.09-3.063 2.89-7.907 3.822-11.397 2.192-1.957-.915-2.912-2.133-3.346-4.269l-.3-1.475 1.993.692c3.892 1.352 7.004.426 8.909-2.65 2.226-3.594.642-6.249-4.993-8.366-3.298-1.239-6.126-3.38-7.26-5.497-.31-.58.268-.202 1.33.868 1.324 1.335 3.144 2.41 6.17 3.645Zm-7.767-.877c1.04 1.14 3.327 2.743 5.503 3.858 5.134 2.63 5.91 4.545 2.637 6.51-1.795 1.078-3.496 1.139-4.893.175-1.302-.898-1.332-2.112-.079-3.228.816-.727 1.11-.768 1.921-.27 1.383.85 1.636.278.267-.605-3.179-2.05-6.821 3.16-5.488 7.849 2.238 7.866 13.376 9.676 19.221 3.124.801-.899 1.588-1.503 1.749-1.344.162.158.294 1.586.294 3.172 0 2.308-.271 3.375-1.355 5.335-1.549 2.801-3.07 3.761-5.96 3.761-2.464 0-4.223-1.079-4.021-2.467.121-.84.433-.984 2.002-.933l1.859.062-1.09-.87c-1.339-1.066-3.233-1.115-4.677-.12-.879.606-1.047 1.068-.887 2.423.11.921.288 1.979.396 2.35.154.529-.555.754-3.257 1.032-3.055.314-3.606.248-4.776-.572-1.832-1.284-3.662-5.201-4.442-9.508-.876-4.84-.868-13.541.014-16.78.381-1.396.695-3.041.698-3.655.003-.615.372-1.517.821-2.005.775-.843.839-.846 1.289-.067.26.452 1.275 1.7 2.254 2.773Zm-43.513 1.097c.442.481 1.786 1.353 2.986 1.939 1.932.943 2.864 1.065 8.15 1.068 6.247.004 6.194.489-.109.993-4.237.339-8.222-.389-10.512-1.918l-1.652-1.104-.535 1.94c-.574 2.077-.298 7.707.469 9.597l.451 1.11.03-1.1c.054-2.026 1.13-4.742 2.415-6.096 2.236-2.357 6.055-1.5 6.781 1.52.231.962.027 1.514-.897 2.423-1.333 1.313-2.084 1.45-3.267.6-.694-.5-.564-.577.965-.577 1.697 0 1.767-.063 1.767-1.565 0-2.098-1.169-2.85-2.934-1.887-3.035 1.657-3.941 7.774-1.811 12.22 1.286 2.685 2.352 3.724 5.997 5.84 2.486 1.445 11.614 9.621 10.741 9.621-.22 0-2.164-1.572-4.321-3.494-2.157-1.921-5.397-4.258-7.201-5.192-5.228-2.705-8.798-6.88-11.01-12.872-1.524-4.128-1.237-10.254.665-14.208l1.333-2.77.348 1.52c.191.835.71 1.911 1.151 2.392Zm-7.751 1.808c.261.48.688 2.726.948 4.988.535 4.648 1.717 8.403 3.776 11.994.773 1.348 1.328 2.45 1.233 2.45-.366 0-3.585-5.096-5.132-8.126-.894-1.75-2.058-4.603-2.586-6.341-.928-3.05-.931-3.153-.084-2.935.737.19.795.095.363-.586-.555-.876-.22-2.318.54-2.318.257 0 .681.394.942.874Zm41.386 3.404c-.84 3.46-.623 5.182 1.293 10.26 1.038 2.75 1.12 6.358.212 9.35-.262.863-.082 1.124 1.038 1.508.745.256 1.602.855 1.905 1.333.528.831.451.843-1.885.294-12.695-2.987-14.551-11.48-4.98-22.79 1.575-1.86 2.933-3.313 3.019-3.228.086.085-.184 1.558-.602 3.273Zm19.849 21.97c.705.546 2.121 1.125 3.146 1.286l1.866.294-1.116.856c-3.19 2.449-10.697 5.77-14.766 6.531-1.441.27-1.462.247-1.415-1.52.117-4.421-6.008-6.191-8.001-2.312-.45.877-.594.955-.6.325-.019-2.313 4.327-4.194 7.089-3.068 1.607.655 3.213 2.878 3.216 4.449.002 1.006.02 1.008 2.459.295 4.227-1.236 11.693-5.232 9.775-5.232-.98 0-3.794-2.88-3.765-3.855l.03-.99.4.974c.22.536.977 1.421 1.682 1.967Zm-46.251 25.131c-1.136.59-2.699 1.958-3.472 3.039-1.231 1.72-1.406 2.361-1.406 5.117 0 2.765.174 3.395 1.426 5.148 1.985 2.782 4.459 4.065 7.851 4.075 8.895.024 13.305-10.16 6.875-15.878-2.366-2.105-3.596-2.575-6.734-2.575-1.685 0-3.132.342-4.54 1.074Zm10.152 1.254c1.822 1.676 2.549 3.355 2.549 5.884 0 2.804-1.49 5.73-3.893 7.645-2.199 1.752-6.319 2.233-8.71 1.016-4.461-2.271-4.814-9.341-.66-13.239 2.629-2.467 3.35-2.751 6.568-2.587 2.32.118 3.166.38 4.146 1.281Zm5.362 7.133c0 7.823.068 8.538.82 8.538.751 0 .821-.697.821-8.192v-8.192l1.346-.151c2.982-.336 4.982.942 4.982 3.184 0 1.656-1.469 3.198-3.047 3.198-.644 0-1.172.157-1.172.35 0 .192 1.213 2.133 2.696 4.312 1.482 2.179 2.911 4.33 3.176 4.78.264.45.854.742 1.311.649.682-.139.236-1.014-2.501-4.899-2.124-3.016-3.08-4.731-2.637-4.731.383 0 1.345-.538 2.138-1.195 1.911-1.583 2-3.844.207-5.232-.995-.772-1.904-.957-4.688-.957h-3.452v8.538Zm12.657 0c0 7.282.104 8.538.703 8.538.6 0 .703-1.256.703-8.538s-.103-8.538-.703-8.538c-.599 0-.703 1.256-.703 8.538Zm4.688 0v8.538h2.407c3.35 0 5.885-.85 7.231-2.424 2.145-2.511 1.095-5.766-2.229-6.907l-1.377-.473 1.425-.852c.784-.469 1.555-1.364 1.714-1.988.741-2.907-1.358-4.432-6.1-4.432h-3.071v8.538Zm12.188 0v8.538h5.157c2.836 0 5.157-.18 5.157-.4 0-.22-1.442-.298-3.205-.174-4.929.347-5.233.054-5.233-5.036v-4.193l2.812.201c1.547.109 2.813.031 2.813-.176 0-.206-1.266-.375-2.813-.375h-2.812v-6.563l3.516.175c1.933.096 3.515.016 3.515-.18 0-.195-2.004-.355-4.453-.355h-4.454v8.538Zm-5.73-7.358c.727.501 1.043 1.19 1.043 2.274 0 2.038-1.767 3.469-4.283 3.469h-1.812v-2.923c0-1.608.141-3.062.313-3.231.587-.578 3.696-.309 4.739.411Zm.574 7.263c1.74.867 2.415 2.569 1.837 4.632-.639 2.278-2.116 3.168-4.961 2.989l-2.267-.142-.136-4.038-.135-4.038 2.245.007c1.235.003 2.772.269 3.417.59Z" fill="#fff" opacity=".5"/></symbol><symbol fill="none" viewBox="0 0 26 26" id="static--socials--instagram-logo" xmlns="http://www.w3.org/2000/svg"><path d="M18.534 1H7.466A6.466 6.466 0 0 0 1 7.466v11.068A6.466 6.466 0 0 0 7.466 25h11.068A6.466 6.466 0 0 0 25 18.534V7.466A6.466 6.466 0 0 0 18.534 1Z" stroke="#fff" stroke-width="2" stroke-miterlimit="10"/><path d="M13 18.793a5.793 5.793 0 1 0 0-11.586 5.793 5.793 0 0 0 0 11.586Z" stroke="#fff" stroke-width="2" stroke-miterlimit="10"/><path d="M20.035 7.207a1.241 1.241 0 1 0 0-2.483 1.241 1.241 0 0 0 0 2.483Z" fill="#fff"/></symbol></svg>